<svg xmlns="http://www.w3.org/2000/svg" enable-background="new 0 0 24 24" viewBox="0 0 24 24" id="cc-visa">
  <path d="M0,4.732v14.536c0,1.094,0.896,1.982,2,1.982h20c1.104,0,2-0.888,2-1.982V4.732c0-1.094-0.896-1.982-2-1.982H2C0.896,2.75,0,3.638,0,4.732z M19.354,8.696h1.296L22,15.113l0.001,0.001h-1.55c0,0-0.15-0.735-0.2-0.962H18.1c-0.063,0.169-0.35,0.962-0.35,0.962h-1.758l2.487-5.885C18.65,8.812,18.954,8.696,19.354,8.696z M11.788,13.524c0.546,0.24,0.904,0.343,1.571,0.343c0.479,0,0.996-0.198,1.004-0.627c0-0.277-0.22-0.484-0.867-0.797c-0.633-0.309-1.479-0.822-1.467-1.743c0.008-1.247,1.171-2.122,2.825-2.122c0.646,0,1.172,0.144,1.5,0.272l-0.229,1.387l-0.15-0.07c-0.3-0.129-0.7-0.256-1.246-0.244c-0.659,0-0.955,0.281-0.963,0.553c0,0.301,0.358,0.5,0.946,0.793c0.963,0.458,1.412,1.016,1.404,1.747v0.001c-0.012,1.329-1.158,2.193-2.916,2.188c-0.75-0.008-1.475-0.165-1.867-0.343l0.234-1.441L11.788,13.524z M11.337,8.696l-1.05,6.417H8.616l1.046-6.417H11.337z M1.362,8.696h2.696C4.424,8.713,4.72,8.829,4.816,9.237l0.583,2.949l0.18,0.888l1.637-4.377h1.771l-2.633,6.409H6.353H4.582L3.091,9.531c-0.512-0.302-1.1-0.541-1.758-0.707L1.362,8.696z"></path>
  <path d="M19.588,10.98L19.588,10.98l-0.117-0.553c-0.083,0.239-0.229,0.627-0.22,0.615c0,0-0.529,1.429-0.667,1.796h1.392C19.904,12.516,19.588,10.98,19.588,10.98z"></path>
</svg>
